<svg width="86" height="77" viewBox="0 0 86 77" fill="none" xmlns="http://www.w3.org/2000/svg">
<path d="M38.7542 0.579344C38.4237 0.649769 36.7999 0.901285 35.1463 1.13788C4.08869 5.58504 -10.6011 39.0287 8.62636 61.5143C14.6141 68.5165 28.3647 76.4453 29.0457 73.2884C29.131 72.8939 28.3124 72.3951 26.2808 71.603C17.9458 68.3531 10.4034 61.9504 6.28816 54.6318C-8.65824 28.0515 16.9134 -2.0274 50.3061 2.85513C55.3224 3.58887 56.1936 2.05965 51.2775 1.14968C49.0399 0.735458 39.9614 0.322278 38.7542 0.579692V0.579344ZM38.9546 8.41729C33.0824 9.1812 25.5259 11.8355 25.5259 13.1343C25.5259 14.1421 26.3739 14.0641 29.4733 12.7711C46.4502 5.69016 67.1191 13.4379 73.2688 29.188C83.4904 55.3676 49.7461 77.5288 24.1229 61.4633C9.88467 52.536 6.60137 34.8046 16.8226 22.037C19.535 18.649 18.1077 17.2165 15.338 20.5473C-1.72695 41.0703 16.0897 70.0586 44.8799 68.6116C73.9427 67.151 87.8383 36.4074 67.839 17.816C60.5073 11.0004 48.6795 7.15172 38.955 8.41659L38.9546 8.41729ZM73.8967 13.0393C73.3006 13.5656 73.756 14.5074 75.6643 16.6962C89.8114 32.9216 85.1794 57.1743 65.7551 68.5845C57.0023 73.7258 49.3173 75.151 34.9462 74.2979C33.5928 74.2174 33.3425 74.309 33.3425 74.8849C33.3425 77.5003 50.5438 76.7912 59.0725 73.8237C84.0815 65.1226 93.942 37.0353 78.8671 17.4386C76.0066 13.7203 74.5679 12.4468 73.8963 13.0396L73.8967 13.0393ZM31.2998 26.2878C30.5889 26.9809 30.528 27.7938 30.4192 38.0341C30.2404 54.8691 28.3423 54.3601 51.3683 43.6511C62.5901 38.4317 62.6529 38.5954 46.5583 31.1422C33.9748 25.315 32.7106 24.9126 31.2998 26.2878V26.2878ZM45.206 32.6569C57.4323 38.2943 57.4959 38.3293 56.6408 38.9559C55.682 39.6587 33.8805 49.6077 33.3001 49.6077C32.834 49.6077 32.7413 47.7576 32.7413 38.4605C32.7413 30.6413 32.8721 27.3129 33.179 27.3129C33.4195 27.3129 38.832 29.7178 45.2064 32.6569H45.206Z" fill="white"/>
</svg>
